<svg xmlns="http://www.w3.org/2000/svg" viewBox="0 0 24 24" fill="#0D96F6">
  <path d="M8.809 14.999c-.076-.152-.242-.354-.503-.61l-1.727-1.69 1.727-1.69c.261-.256.427-.458.503-.61.076-.152.114-.32.114-.502 0-.31-.103-.569-.31-.776s-.466-.31-.776-.31c-.182 0-.35.038-.502.114-.152.076-.354.242-.61.503L4.999 11.154 3.273 9.428c-.256-.261-.458-.427-.61-.503-.152-.076-.32-.114-.502-.114-.31 0-.569.103-.776.31s-.31.466-.31.776c0 .182.038.35.114.502.076.152.242.354.503.61l1.727 1.69-1.727 1.69c-.261.256-.427.458-.503.61-.076.152-.114.32-.114.502 0 .31.103.569.31.776s.466.31.776.31c.182 0 .35-.038.502-.114.152-.076.354-.242.61-.503l1.727-1.726 1.727 1.726c.256.261.458.427.61.503.152.076.32.114.502.114.31 0 .569-.103.776-.31s.31-.466.31-.776c0-.182-.038-.35-.114-.502zm7.191 5.001c0-.31-.103-.569-.31-.776s-.466-.31-.776-.31h-3.828c-.31 0-.569.103-.776.31s-.31.466-.31.776c0 .31.103.569.31.776s.466.31.776.31h3.828c.31 0 .569-.103.776-.31s.31-.466.31-.776zm8 0c0-.31-.103-.569-.31-.776s-.466-.31-.776-.31h-3.828c-.31 0-.569.103-.776.31s-.31.466-.31.776c0 .31.103.569.31.776s.466.31.776.31h3.828c.31 0 .569-.103.776-.31s.31-.466.31-.776zM24 12c0 6.627-5.373 12-12 12S0 18.627 0 12 5.373 0 12 0s12 5.373 12 12z"/>
</svg>
