<svg xmlns="http://www.w3.org/2000/svg" viewBox="0 0 24 24">
  <path fill="#EA4335" d="M3.18 2.063a1.74 1.74 0 0 0-.643 1.454v17.03a1.74 1.74 0 0 0 .643 1.454l.071.04 9.545-9.546v-.225L3.251 2.724l-.071.039z"/>
  <path fill="#FBBC04" d="M16.17 15.713l-3.175-3.175v-.226l3.175-3.175.072.041 3.763 2.138c1.074.61 1.074 1.608 0 2.219l-3.763 2.139-.072.039z"/>
  <path fill="#34A853" d="M16.243 15.673l-3.247-3.136L3.18 22.001c.356.375.94.421 1.6.047l11.463-6.375z"/>
  <path fill="#4285F4" d="M16.243 8.177L4.78 1.801c-.66-.374-1.244-.328-1.6.047l9.816 10.463 3.247-4.134z"/>
</svg>
