<?xml version="1.0" encoding="UTF-8"?>
<svg xmlns="http://www.w3.org/2000/svg" viewBox="0 0 100 100" width="500" height="500">
  <defs>
    <style>
      .st0 { fill: #0780b0; }
      .st1 { fill: #d54c8a; }
      .st2 { fill: #d24484; }
      .st3 { fill: #1682ad; }
    </style>
  </defs>

  <!-- White background -->
  <rect width="100" height="100" fill="white" rx="4"/>

  <!-- TW (top half) - scaled to fit 90 wide, centered -->
  <!-- Original TW is 76 wide x 43 tall, scale by 0.95 = 72 wide x 41 tall, offset (100-72)/2 = 14 -->
  <g transform="translate(14, 4) scale(0.95)">
    <path class="st2" d="M74.36.18h-3.46c-.8-.01-1.49.57-1.6,1.34l-4.13,27.26-3.57-9.34c-.9-2.36-3.28-3.95-5.92-3.96s-5.03,1.57-5.94,3.93l-3.54,9.13-2.43-20.66C43.24,3.45,39.3.09,34.6.08L1.63,0C.74,0,.01.7,0,1.57v3.73c-.01.87.71,1.58,1.6,1.58l13.15.03-.09,34.24c0,.87.72,1.58,1.61,1.58h3.46c.89.01,1.62-.69,1.62-1.56l.09-34.24,12.68.03c1.1,0,2.02.76,2.13,1.77l3.55,30.18c.26,2.21,2.22,3.89,4.55,3.89,1.88,0,3.55-1.06,4.26-2.72l6.69-15.56c.07-.17.26-.19.33-.19s.26.02.33.19l6.61,15.59c.7,1.66,2.37,2.73,4.25,2.74,2.34,0,4.3-1.66,4.57-3.87L75.96,1.95c.05-.44-.08-.88-.38-1.21-.31-.35-.75-.55-1.22-.55"/>
  </g>

  <!-- QR (bottom half) - original QR spans x:85-155.54, need to translate -85 first, then scale -->
  <!-- QR is 70.54 wide x 43 tall, scale by 0.95 = 67 wide x 41 tall, offset (100-67)/2 = 16.5 -->
  <g transform="translate(16.5, 52) scale(0.95)">
    <g transform="translate(-85, 0)">
      <!-- Q outer -->
      <path class="st3" d="M108.86,35.15c-1.01,0-1.95-.08-2.83-.22-1.04.71-2.31,1.14-3.7,1.14l-10.37-.03c-3.44,0-6.23-2.63-6.22-5.85l.04-17.27c0-3.21,2.81-5.82,6.25-5.82l10.37.03c3.44,0,6.23,2.63,6.22,5.85l-.04,16.11c.1,0,.19.02.29.02,3.04,0,5.06-1.05,6.41-2.47l.04-14.57c.02-6.5-5.55-11.81-12.42-11.82l-11.33-.03c-6.86-.02-12.46,5.26-12.48,11.76l-.05,19.11c-.02,6.5,5.55,11.81,12.42,11.82l11.33.03c5.8.01,10.68-3.75,12.07-8.84-1.67.65-3.65,1.04-6,1.04"/>
      <!-- Q inner pink -->
      <path class="st1" d="M108.59,29.09c-7.02-.18-8.42-6.07-8.69-8.62-.08-.77-.75-1.35-1.56-1.35h-2.5c-.52,0-1,.21-1.34.58-.32.35-.47.81-.42,1.27.31,3.05,2.1,12.42,11.96,13.96.88.14,1.82.22,2.83.22,2.35,0,4.33-.38,6-1.04,7.08-2.77,8.55-10.32,8.85-12.99.05-.46-.1-.93-.41-1.28-.34-.38-.82-.59-1.34-.59h-2.33c-.89,0-1.65.63-1.76,1.49-.18,1.45-.77,4-2.59,5.91-1.35,1.41-3.36,2.47-6.41,2.47-.1,0-.19-.01-.29-.02"/>
      <!-- R -->
      <path class="st0" d="M155.54,11.5c.02-6.13-5.24-11.13-11.71-11.15l-16.18-.04c-.89,0-1.62.7-1.62,1.57v3.73c-.01.87.71,1.58,1.6,1.58l17.25.04c1.28,0,2.47.62,3.12,1.61.99,1.52,1.12,3.14.35,4.54-.78,1.43-2.34,2.32-4.06,2.32l-12.34-.03c-3.28,0-5.96,2.52-5.97,5.65,0,1.51.64,2.99,1.77,4.05l18.38,17.25s.1.08.15.12c.22.16.48.27.76.3.07,0,.14.02.21.02h5.55c.67.02,1.27-.38,1.51-.99.24-.59.09-1.26-.38-1.7l-18.74-17.81,8.58.02c6.47.02,11.75-4.96,11.76-11.09"/>
      <!-- Dot square -->
      <path class="st3" d="M118.36,42.99h5.3s.01-5.29.01-5.29h-5.3s-.01,5.29-.01,5.29ZM118.96,38.27h4.14s-.01,4.15-.01,4.15h-4.14s.01-4.15.01-4.15Z"/>
      <rect class="st3" x="119.35" y="38.68" width="3.33" height="3.33"/>
    </g>
  </g>
</svg>
